<svg height="678" version="1.1" width="1148" xmlns="http://www.w3.org/2000/svg" style="overflow: hidden; position: relative;"><desc style="-webkit-tap-highlight-color: rgba(0, 0, 0, 0);">Created with Raphaël 2.0.1</desc><defs style="-webkit-tap-highlight-color: rgba(0, 0, 0, 0);"></defs><rect x="0" y="0" width="1148" height="678" r="0" rx="0" ry="0" fill="none" stroke="none" style="-webkit-tap-highlight-color: rgba(0, 0, 0, 0);"></rect><rect x="873" y="320" width="38" height="177" r="5" rx="5" ry="5" fill="#ededed" stroke="#ededed" transform="matrix(1,0,0,1,-19,-88.5)" stroke-width="17" opacity="0.4" style="-webkit-tap-highlight-color: rgba(0, 0, 0, 0); opacity: 0.4;"></rect><rect x="256" y="632" width="249" height="246" r="5" rx="5" ry="5" fill="#ededed" stroke="#ededed" transform="matrix(1,0,0,1,-124.5,-123)" stroke-width="17" opacity="0.4" style="-webkit-tap-highlight-color: rgba(0, 0, 0, 0); opacity: 0.4;"></rect><rect x="78" y="206" width="258" height="161" r="5" rx="5" ry="5" fill="#ededed" stroke="#ededed" transform="matrix(1,0,0,1,-129,-80.5)" stroke-width="17" opacity="0.4" style="-webkit-tap-highlight-color: rgba(0, 0, 0, 0); opacity: 0.4;"></rect><rect x="631" y="638" width="27" height="26" r="5" rx="5" ry="5" fill="#ededed" stroke="#ededed" transform="matrix(1,0,0,1,-13.5,-13)" stroke-width="17" opacity="0.4" style="-webkit-tap-highlight-color: rgba(0, 0, 0, 0); opacity: 0.4;"></rect><rect x="50" y="1" width="296" height="193" r="5" rx="5" ry="5" fill="#ededed" stroke="#ededed" transform="matrix(1,0,0,1,-148,-96.5)" stroke-width="17" opacity="0.4" style="-webkit-tap-highlight-color: rgba(0, 0, 0, 0); opacity: 0.4;"></rect><rect x="92" y="-69" width="307" height="223" r="5" rx="5" ry="5" fill="#ededed" stroke="#ededed" transform="matrix(1,0,0,1,-153.5,-111.5)" stroke-width="17" opacity="0.4" style="-webkit-tap-highlight-color: rgba(0, 0, 0, 0); opacity: 0.4;"></rect><rect x="374" y="448" width="54" height="182" r="5" rx="5" ry="5" fill="#ededed" stroke="#ededed" transform="matrix(1,0,0,1,-27,-91)" stroke-width="17" opacity="0.4" style="-webkit-tap-highlight-color: rgba(0, 0, 0, 0); opacity: 0.4;"></rect><rect x="753" y="194" width="138" height="265" r="5" rx="5" ry="5" fill="#ededed" stroke="#ededed" transform="matrix(1,0,0,1,-69,-132.5)" stroke-width="17" opacity="0.4" style="-webkit-tap-highlight-color: rgba(0, 0, 0, 0); opacity: 0.4;"></rect><rect x="1095" y="344" width="299" height="181" r="5" rx="5" ry="5" fill="#ededed" stroke="#ededed" transform="matrix(1,0,0,1,-149.5,-90.5)" stroke-width="17" opacity="0.4" style="-webkit-tap-highlight-color: rgba(0, 0, 0, 0); opacity: 0.4;"></rect><rect x="429" y="43" width="123" height="106" r="5" rx="5" ry="5" fill="#ededed" stroke="#ededed" transform="matrix(1,0,0,1,-61.5,-53)" stroke-width="17" opacity="0.4" style="-webkit-tap-highlight-color: rgba(0, 0, 0, 0); opacity: 0.4;"></rect><rect x="284" y="76" width="70" height="168" r="5" rx="5" ry="5" fill="#ededed" stroke="#ededed" transform="matrix(1,0,0,1,-35,-84)" stroke-width="17" opacity="0.4" style="-webkit-tap-highlight-color: rgba(0, 0, 0, 0); opacity: 0.4;"></rect></svg>